<?xml version="1.0" encoding="iso-8859-1"?>
<!-- Generator: Adobe Illustrator 19.0.0, SVG Export Plug-In . SVG Version: 6.00 Build 0)  -->
<svg version="1.1" id="Capa_1" xmlns="http://www.w3.org/2000/svg" xmlns:xlink="http://www.w3.org/1999/xlink" x="0px" y="0px"
	 viewBox="0 0 490.078 490.078" style="enable-background:new 0 0 490.078 490.078;" xml:space="preserve">
<g>
	<path d="M489.179,165.309l-25,31.1c-0.8,1-0.8,2.4,0,3.4l24.9,30.3c2.2,2.6,0.3,6.6-3.1,6.6h-103.5c-0.5-2.4-1.2-4.8-2.2-7.1
		l-0.3-0.6l0.5-0.5c8.7-7.7,13.7-18.7,13.8-30.3c0-11.6-4.9-22.7-13.6-30.4l-0.5-0.5l0.3-0.6c1.1-2.5,1.9-5.2,2.4-7.9h103.2
		C489.479,158.709,491.279,162.709,489.179,165.309z M107.479,158.709H4.079c-3.4,0-5.3,4-3.1,6.6l24.9,30.3c0.8,1,0.8,2.4,0,3.4
		l-25,31.1c-2.1,2.7-0.2,6.6,3.2,6.6h103.2c0.5-2.7,1.3-5.3,2.4-7.9l0.3-0.6l-0.5-0.5c-8.7-7.7-13.7-18.8-13.6-30.4
		c0-11.6,5.1-22.7,13.8-30.3l0.5-0.5l-0.3-0.6C108.779,163.509,108.079,161.109,107.479,158.709z M104.079,372.309l-18.9-1.4
		l-7.2-17.6c-1.3-3.3-6-3.3-7.4,0l-7.2,17.6l-18.9,1.4c-3.6,0.3-5,4.7-2.3,7l14.5,12.2l-4.4,18.5c-0.9,3.5,2.9,6.2,6,4.3l16.1-10
		l16.1,10c3,1.9,6.8-0.9,6-4.3l-4.5-18.4l14.5-12.2C109.079,377.009,107.679,372.609,104.079,372.309z M189.479,372.309l-18.9-1.4
		l-7.2-17.6c-1.3-3.3-6-3.3-7.4,0l-7.2,17.6l-18.9,1.4c-3.6,0.3-5,4.7-2.3,7l14.5,12.2l-4.5,18.4c-0.9,3.5,2.9,6.2,6,4.3l16.1-10
		l16.1,10c3,1.9,6.8-0.9,6-4.3l-4.5-18.4l14.5-12.2C194.479,377.009,192.979,372.609,189.479,372.309z M274.779,372.309l-18.9-1.4
		l-7.2-17.6c-1.3-3.3-6-3.3-7.4,0l-7.2,17.6l-18.9,1.4c-3.6,0.3-5,4.7-2.3,7l14.5,12.2l-4.5,18.4c-0.9,3.5,2.9,6.2,6,4.3l16.1-10
		l16.1,10c3,1.9,6.8-0.9,6-4.3l-4.5-18.4l14.5-12.2C279.779,377.009,278.279,372.609,274.779,372.309z M360.079,372.309l-18.9-1.4
		l-7.2-17.6c-1.3-3.3-6-3.3-7.4,0l-7.2,17.6l-18.9,1.4c-3.6,0.3-5,4.7-2.3,7l14.5,12.2l-4.5,18.4c-0.9,3.5,2.9,6.2,6,4.3l16.1-10
		l16.1,10c3,1.9,6.8-0.9,6-4.3l-4.5-18.4l14.5-12.2C365.079,377.009,363.679,372.609,360.079,372.309z M445.379,372.309l-18.9-1.4
		l-7.2-17.6c-1.3-3.3-6-3.3-7.4,0l-7.2,17.6l-18.9,1.4c-3.6,0.3-5,4.7-2.3,7l14.5,12.2l-4.5,18.4c-0.9,3.5,2.9,6.2,6,4.3l16.1-10
		l16.1,10c3,1.9,6.8-0.9,6-4.3l-4.5-18.4l14.5-12.2C450.379,377.009,448.979,372.609,445.379,372.309z M125.379,209.409
		c-7.3-6.5-7.3-18,0.1-24.4l4.8-4.2c5.3-4.6,7-12.1,4.3-18.5l-2.5-5.9c-3.8-9,1.2-19.3,10.7-22l6.2-1.7c6.7-1.9,11.5-7.8,11.9-14.8
		l0.3-6.4c0.5-9.8,9.5-16.9,19.1-15.2l6.3,1.1c6.9,1.2,13.8-2.1,17.1-8.2l3.1-5.6c4.7-8.6,15.9-11.1,23.8-5.4l5.2,3.8
		c5.7,4.1,13.3,4.1,19,0.1l5.2-3.7c8-5.7,19.1-3.1,23.8,5.5l3,5.6c3.3,6.1,10.2,9.5,17.1,8.3l6.3-1.1c9.6-1.7,18.6,5.5,19,15.3
		l0.3,6.4c0.3,7,5.1,13,11.8,14.9l6.2,1.8c9.4,2.7,14.4,13,10.5,22l-2.5,5.9c-2.7,6.4-1,13.9,4.2,18.5l4.8,4.3
		c7.3,6.5,7.3,18-0.1,24.4l-4.8,4.2c-5.3,4.6-7,12.1-4.3,18.5l2.5,5.9c3.8,9-1.2,19.3-10.6,22l-6.2,1.7c-6.7,1.9-11.5,7.8-11.9,14.8
		l-0.3,6.4c-0.5,9.8-9.5,16.9-19.1,15.2l-6.3-1.1c-6.9-1.2-13.8,2.1-17.1,8.2l-3.1,5.6c-4.7,8.6-15.9,11.1-23.8,5.4l-5.2-3.8
		c-5.7-4.1-13.3-4.1-19-0.1l-5.2,3.7c-8,5.7-19.1,3.1-23.8-5.5l-3-5.6c-3.3-6.1-10.2-9.5-17.1-8.3l-6.3,1.1
		c-9.7,1.7-18.6-5.5-19-15.3l-0.3-6.4c-0.3-7-5.1-13-11.8-14.9l-6.2-1.8c-9.4-2.7-14.4-13-10.5-22l2.5-5.9c2.7-6.4,1-13.9-4.2-18.5
		L125.379,209.409z M165.379,197.509c0,43.9,35.7,79.6,79.6,79.6s79.6-35.7,79.6-79.6s-35.7-79.6-79.6-79.6
		C201.079,117.809,165.379,153.609,165.379,197.509z M244.979,254.909c31.7,0,57.5-25.8,57.5-57.5s-25.8-57.5-57.5-57.5
		s-57.5,25.8-57.5,57.5C187.479,229.209,213.279,254.909,244.979,254.909z"/>
</g>
<g>
</g>
<g>
</g>
<g>
</g>
<g>
</g>
<g>
</g>
<g>
</g>
<g>
</g>
<g>
</g>
<g>
</g>
<g>
</g>
<g>
</g>
<g>
</g>
<g>
</g>
<g>
</g>
<g>
</g>
</svg>
